<svg width="28" height="28" viewBox="0 0 28 28" fill="none" xmlns="http://www.w3.org/2000/svg">
<g clip-path="url(#clip0_6035_37636)">
<path d="M14.095 4.16602H14.2507C15.689 4.17126 22.9767 4.22376 24.9416 4.75218C25.5357 4.91345 26.0769 5.2278 26.5114 5.66381C26.9459 6.09982 27.2583 6.64222 27.4175 7.23681C27.5942 7.90171 27.7185 8.78183 27.8025 9.68995L27.82 9.87192L27.8584 10.3269L27.8724 10.5088C27.9862 12.1081 28.0002 13.6059 28.0019 13.9331V14.0643C28.0002 14.4038 27.9844 16.003 27.8584 17.6688L27.8444 17.8525L27.8287 18.0345C27.7412 19.0353 27.6117 20.0292 27.4175 20.7606C27.2583 21.3552 26.9459 21.8976 26.5114 22.3336C26.0769 22.7696 25.5357 23.0839 24.9416 23.2452C22.9119 23.7911 15.1973 23.8296 14.1282 23.8314H13.8798C13.3391 23.8314 11.1029 23.8209 8.75827 23.7404L8.46081 23.7299L8.30858 23.7229L8.00938 23.7106L7.71017 23.6984C5.76796 23.6126 3.91848 23.4744 3.06636 23.2434C2.47255 23.0823 1.93139 22.7682 1.49693 22.3326C1.06247 21.8969 0.749918 21.3548 0.590476 20.7606C0.396255 20.0309 0.266774 19.0353 0.179287 18.0345L0.165289 17.8507L0.151291 17.6688C0.0644401 16.4832 0.016588 15.295 0.0078125 14.1063L0.0078125 13.8911C0.011312 13.5149 0.0253099 12.2148 0.119796 10.78L0.132044 10.5998L0.137293 10.5088L0.151291 10.3269L0.189786 9.87192L0.207283 9.68995C0.291271 8.78183 0.415502 7.89996 0.592226 7.23681C0.751401 6.64222 1.06384 6.09982 1.49831 5.66381C1.93279 5.2278 2.47408 4.91345 3.06811 4.75218C3.92023 4.52471 5.76971 4.38473 7.71192 4.29725L8.00938 4.285L8.31033 4.2745L8.46081 4.26925L8.76002 4.257C10.4253 4.20347 12.0912 4.17372 13.7573 4.16777L14.095 4.16602ZM11.2062 9.78268V18.2129L18.4798 13.9996L11.2062 9.78268Z" fill="#121212"/>
</g>
<defs>
<clipPath id="clip0_6035_37636">
<rect width="28" height="28" fill="white"/>
</clipPath>
</defs>
</svg>
