<svg width="56" height="56" viewBox="0 0 56 56" fill="none" xmlns="http://www.w3.org/2000/svg">
<path d="M54.8571 28.6136C54.8571 26.3593 54.6742 24.7143 54.2783 23.0084H28.5371V33.1829H43.6466C43.3421 35.7114 41.6971 39.5193 38.0415 42.0781L37.9903 42.4187L46.1292 48.7238L46.693 48.7801C51.8716 43.9973 54.8571 36.9604 54.8571 28.6136Z" fill="#4285F4"/>
<path d="M28.5392 55.4233C35.9415 55.4233 42.1559 52.9861 46.6951 48.7824L38.0435 42.0804C35.7284 43.695 32.6211 44.8221 28.5392 44.8221C21.289 44.8221 15.1356 40.0395 12.942 33.4291L12.6205 33.4564L4.15755 40.0059L4.04688 40.3136C8.55533 49.2697 17.8161 55.4233 28.5392 55.4233Z" fill="#34A853"/>
<path d="M12.9621 33.4141C12.3833 31.7082 12.0483 29.8803 12.0483 27.9917C12.0483 26.1028 12.3833 24.2751 12.9317 22.5692L12.9163 22.2059L4.34731 15.5511L4.06695 15.6845C2.20879 19.401 1.14258 23.5745 1.14258 27.9917C1.14258 32.4088 2.20879 36.5821 4.06695 40.2986L12.9621 33.4141Z" fill="#FBBC05"/>
<path d="M28.5392 11.1776C33.6873 11.1776 37.16 13.4014 39.1402 15.2597L46.8778 7.70487C42.1257 3.28775 35.9415 0.576538 28.5392 0.576538C17.8161 0.576538 8.55533 6.73 4.04688 15.686L12.9115 22.5708C15.1356 15.9603 21.289 11.1776 28.5392 11.1776Z" fill="#EB4335"/>
</svg>
