<svg width="48" height="48" viewBox="0 0 48 48" fill="none" xmlns="http://www.w3.org/2000/svg">
<path d="M5.48312 26.7026L26.6991 5.48356C27.8135 4.36923 29.1364 3.48529 30.5923 2.88222C32.0482 2.27915 33.6087 1.96875 35.1846 1.96875C36.7605 1.96875 38.321 2.27915 39.7769 2.88222C41.2329 3.48529 42.5558 4.36923 43.6701 5.48356C44.7845 6.59789 45.6684 7.92079 46.2715 9.37674C46.8745 10.8327 47.1849 12.3932 47.1849 13.9691C47.1849 15.545 46.8745 17.1054 46.2715 18.5614C45.6684 20.0173 44.7845 21.3402 43.6701 22.4546L22.4601 43.6676C21.3462 44.7825 20.0236 45.6671 18.5677 46.2709C17.1119 46.8746 15.5515 47.1857 13.9754 47.1864C12.3994 47.1871 10.8386 46.8774 9.38229 46.2749C7.92596 45.6724 6.60254 44.789 5.48762 43.6751C4.3727 42.5611 3.4881 41.2385 2.88433 39.7827C2.28056 38.3269 1.96945 36.7664 1.96875 35.1904C1.96805 33.6143 2.27779 32.0536 2.88027 30.5972C3.48275 29.1409 4.36918 27.8175 5.48312 26.7026ZM32.8671 29.0156L41.5461 20.3366C42.3929 19.5032 43.0664 18.5105 43.5276 17.4156C43.9888 16.3207 44.2287 15.1454 44.2334 13.9573C44.2381 12.7693 44.0075 11.592 43.5549 10.4935C43.1024 9.39504 42.4368 8.39701 41.5966 7.55702C40.7565 6.71703 39.7583 6.05171 38.6597 5.59942C37.5611 5.14713 36.3838 4.91683 35.1957 4.92181C34.0077 4.92679 32.8324 5.16694 31.7376 5.62842C30.6428 6.08989 29.6502 6.76356 28.8171 7.61056L20.1381 16.2896L32.8671 29.0156Z" fill="url(#paint0_linear_1069_57985)"/>
<defs>
<linearGradient id="paint0_linear_1069_57985" x1="4.40879" y1="-8.18185" x2="57.4307" y2="4.56379" gradientUnits="userSpaceOnUse">
<stop stop-color="#4686FE"/>
<stop offset="1" stop-color="#1769FF"/>
</linearGradient>
</defs>
</svg>
